<?xml version="1.0" encoding="UTF-8"?>
<svg xmlns="http://www.w3.org/2000/svg" viewBox="0 0 21 9" role="img" aria-label="rpccheck">
  <title>rpccheck</title>
  <rect x="1.0000" y="1.0000" width="0.8462" height="0.8462" fill="#fafafa"/>
  <rect x="2.0000" y="1.0000" width="0.8462" height="0.8462" fill="#fafafa"/>
  <rect x="3.0000" y="1.0000" width="0.8462" height="0.8462" fill="#fafafa"/>
  <rect x="4.0000" y="1.0000" width="0.8462" height="0.8462" fill="#fafafa"/>
  <rect x="1.0000" y="2.0000" width="0.8462" height="0.8462" fill="#fafafa"/>
  <rect x="5.0000" y="2.0000" width="0.8462" height="0.8462" fill="#fafafa"/>
  <rect x="1.0000" y="3.0000" width="0.8462" height="0.8462" fill="#fafafa"/>
  <rect x="5.0000" y="3.0000" width="0.8462" height="0.8462" fill="#fafafa"/>
  <rect x="1.0000" y="4.0000" width="0.8462" height="0.8462" fill="#fafafa"/>
  <rect x="2.0000" y="4.0000" width="0.8462" height="0.8462" fill="#fafafa"/>
  <rect x="3.0000" y="4.0000" width="0.8462" height="0.8462" fill="#fafafa"/>
  <rect x="4.0000" y="4.0000" width="0.8462" height="0.8462" fill="#fafafa"/>
  <rect x="1.0000" y="5.0000" width="0.8462" height="0.8462" fill="#fafafa"/>
  <rect x="3.0000" y="5.0000" width="0.8462" height="0.8462" fill="#fafafa"/>
  <rect x="1.0000" y="6.0000" width="0.8462" height="0.8462" fill="#fafafa"/>
  <rect x="4.0000" y="6.0000" width="0.8462" height="0.8462" fill="#fafafa"/>
  <rect x="1.0000" y="7.0000" width="0.8462" height="0.8462" fill="#fafafa"/>
  <rect x="5.0000" y="7.0000" width="0.8462" height="0.8462" fill="#fafafa"/>
  <rect x="8.0000" y="1.0000" width="0.8462" height="0.8462" fill="#fafafa"/>
  <rect x="9.0000" y="1.0000" width="0.8462" height="0.8462" fill="#fafafa"/>
  <rect x="10.0000" y="1.0000" width="0.8462" height="0.8462" fill="#fafafa"/>
  <rect x="11.0000" y="1.0000" width="0.8462" height="0.8462" fill="#fafafa"/>
  <rect x="8.0000" y="2.0000" width="0.8462" height="0.8462" fill="#fafafa"/>
  <rect x="12.0000" y="2.0000" width="0.8462" height="0.8462" fill="#fafafa"/>
  <rect x="8.0000" y="3.0000" width="0.8462" height="0.8462" fill="#fafafa"/>
  <rect x="12.0000" y="3.0000" width="0.8462" height="0.8462" fill="#fafafa"/>
  <rect x="8.0000" y="4.0000" width="0.8462" height="0.8462" fill="#fafafa"/>
  <rect x="9.0000" y="4.0000" width="0.8462" height="0.8462" fill="#fafafa"/>
  <rect x="10.0000" y="4.0000" width="0.8462" height="0.8462" fill="#fafafa"/>
  <rect x="11.0000" y="4.0000" width="0.8462" height="0.8462" fill="#fafafa"/>
  <rect x="8.0000" y="5.0000" width="0.8462" height="0.8462" fill="#fafafa"/>
  <rect x="8.0000" y="6.0000" width="0.8462" height="0.8462" fill="#fafafa"/>
  <rect x="8.0000" y="7.0000" width="0.8462" height="0.8462" fill="#fafafa"/>
  <rect x="16.0000" y="1.0000" width="0.8462" height="0.8462" fill="#fafafa"/>
  <rect x="17.0000" y="1.0000" width="0.8462" height="0.8462" fill="#fafafa"/>
  <rect x="18.0000" y="1.0000" width="0.8462" height="0.8462" fill="#fafafa"/>
  <rect x="19.0000" y="1.0000" width="0.8462" height="0.8462" fill="#fafafa"/>
  <rect x="15.0000" y="2.0000" width="0.8462" height="0.8462" fill="#fafafa"/>
  <rect x="15.0000" y="3.0000" width="0.8462" height="0.8462" fill="#fafafa"/>
  <rect x="15.0000" y="4.0000" width="0.8462" height="0.8462" fill="#fafafa"/>
  <rect x="15.0000" y="5.0000" width="0.8462" height="0.8462" fill="#fafafa"/>
  <rect x="15.0000" y="6.0000" width="0.8462" height="0.8462" fill="#fafafa"/>
  <rect x="16.0000" y="7.0000" width="0.8462" height="0.8462" fill="#fafafa"/>
  <rect x="17.0000" y="7.0000" width="0.8462" height="0.8462" fill="#fafafa"/>
  <rect x="18.0000" y="7.0000" width="0.8462" height="0.8462" fill="#fafafa"/>
  <rect x="19.0000" y="7.0000" width="0.8462" height="0.8462" fill="#fafafa"/>
</svg>
